<?xml version="1.0" encoding="UTF-8"?>
<svg xmlns="http://www.w3.org/2000/svg" viewBox="0 0 100 125">

  <!-- Glow mais forte (expandido) -->
  <path 
    d="M89.1,23.4c-0.7-0.5-1.6-0.6-2.3-0.2c-4.3,2.2-8.3,3.3-12.3,3.3c-6.5,0-12-2.8-17.9-5.9c-6.1-3.1-12.3-6.4-19.9-6.4
    c-3.5,0-7,0.7-10.6,2.1c-0.2-0.8-0.9-1.5-1.8-1.7c-1.2-0.2-2.4,0.6-2.6,1.8l-0.5,3.1l-7.2,41l-4,22.4
    c-0.2,1.2,0.6,2.4,1.8,2.6c1.1,0,2-0.8,2.2-1.8l3.8-21.4c3.9-1.9,7.6-2.8,11.3-2.8
    c6.5,0,12,2.8,17.9,5.9c6.1,3.1,12.3,6.4,19.9,6.4c4.7,0,9.4-1.2,14.3-3.8
    c0.6-0.3,1-0.9,1.2-1.6l7.2-41C90.1,24.7,89.8,23.9,89.1,23.4z"
    fill="#FFC107"
    opacity="0.5"
    transform="scale(1.05) translate(-2,-2)"
  />

  <!-- Glow secundário (suaviza borda) -->
  <path 
    d="M89.1,23.4c-0.7-0.5-1.6-0.6-2.3-0.2c-4.3,2.2-8.3,3.3-12.3,3.3c-6.5,0-12-2.8-17.9-5.9c-6.1-3.1-12.3-6.4-19.9-6.4
    c-3.5,0-7,0.7-10.6,2.1c-0.2-0.8-0.9-1.5-1.8-1.7c-1.2-0.2-2.4,0.6-2.6,1.8l-0.5,3.1l-7.2,41l-4,22.4
    c-0.2,1.2,0.6,2.4,1.8,2.6c1.1,0,2-0.8,2.2-1.8l3.8-21.4c3.9-1.9,7.6-2.8,11.3-2.8
    c6.5,0,12,2.8,17.9,5.9c6.1,3.1,12.3,6.4,19.9,6.4c4.7,0,9.4-1.2,14.3-3.8
    c0.6-0.3,1-0.9,1.2-1.6l7.2-41C90.1,24.7,89.8,23.9,89.1,23.4z"
    fill="#FFD54F"
    opacity="0.3"
    transform="scale(1.02) translate(-1,-1)"
  />

  <!-- Bandeira principal -->
  <path 
    d="M89.1,23.4c-0.7-0.5-1.6-0.6-2.3-0.2c-4.3,2.2-8.3,3.3-12.3,3.3c-6.5,0-12-2.8-17.9-5.9c-6.1-3.1-12.3-6.4-19.9-6.4
    c-3.5,0-7,0.7-10.6,2.1c-0.2-0.8-0.9-1.5-1.8-1.7c-1.2-0.2-2.4,0.6-2.6,1.8l-0.5,3.1l-7.2,41l-4,22.4
    c-0.2,1.2,0.6,2.4,1.8,2.6c1.1,0,2-0.8,2.2-1.8l3.8-21.4c3.9-1.9,7.6-2.8,11.3-2.8
    c6.5,0,12,2.8,17.9,5.9c6.1,3.1,12.3,6.4,19.9,6.4c4.7,0,9.4-1.2,14.3-3.8
    c0.6-0.3,1-0.9,1.2-1.6l7.2-41C90.1,24.7,89.8,23.9,89.1,23.4z"
    fill="#000000"
  />

</svg>