<svg width="741" height="361" xmlns="http://www.w3.org/2000/svg" xmlns:xlink="http://www.w3.org/1999/xlink" xml:space="preserve" overflow="hidden"><defs><clipPath id="clip0"><rect x="244" y="92" width="741" height="361"/></clipPath><clipPath id="clip1"><rect x="244" y="92" width="741" height="361"/></clipPath><clipPath id="clip2"><rect x="245" y="93" width="740" height="360"/></clipPath><clipPath id="clip3"><rect x="245" y="93" width="740" height="360"/></clipPath></defs><g clip-path="url(#clip0)" transform="translate(-244 -92)"><g clip-path="url(#clip1)"><g clip-path="url(#clip2)"><g clip-path="url(#clip3)"><path d="M123.868 504.451C123.868 509.241 122.948 513.347 121.139 516.793 119.322 520.24 116.682 522.871 113.204 524.672 109.733 526.48 105.545 527.385 100.641 527.385 95.72 527.385 91.5242 526.48 88.0699 524.672 84.5992 522.855 81.9514 520.24 80.1346 516.81 78.3097 513.396 77.4135 509.257 77.4135 504.451L77.4135 468.489 78.4808 467.487 83.6705 467.487C86.4405 467.487 88.575 468.221 90.0904 469.679 91.6139 471.154 92.3715 473.459 92.3715 476.596L92.3715 504.581C92.3715 508.223 92.9989 510.903 94.2372 512.63 95.4919 514.366 97.6183 515.237 100.641 515.237 103.663 515.237 105.814 514.366 107.061 512.622 108.315 510.887 108.935 508.206 108.935 504.581L108.935 468.164C110.507 467.878 111.916 467.715 113.179 467.626 114.434 467.561 115.46 467.528 116.226 467.528 116.902 467.528 117.962 467.561 119.395 467.626 120.829 467.715 122.32 467.878 123.868 468.18L123.868 504.451ZM131.583 470.665C133.188 469.459 134.785 468.587 136.406 468.033 138.02 467.504 139.568 467.235 141.034 467.235 143.055 467.235 144.757 467.642 146.134 468.473 147.511 469.304 148.888 470.803 150.281 473.011L181.525 523.49C179.904 524.712 178.307 525.6 176.702 526.13 175.081 526.668 173.549 526.928 172.074 526.928 170.021 526.928 168.31 526.521 166.934 525.706 165.549 524.908 164.131 523.336 162.697 521.014L131.583 470.665ZM165.654 468.131C166.608 467.911 167.577 467.756 168.587 467.658 169.598 467.569 170.641 467.528 171.74 467.528 173.06 467.528 174.364 467.642 175.675 467.87 176.971 468.09 178.177 468.416 179.317 468.807L179.863 470.119 162.078 499.603 156.725 505.616 144.602 526.049C143.657 526.269 142.704 526.423 141.735 526.513 140.749 526.594 139.682 526.635 138.517 526.635 137.14 526.635 135.828 526.521 134.59 526.317 133.343 526.089 132.089 525.78 130.809 525.372L130.264 523.898 149.719 492.034 155.08 486.063 165.654 468.131Z" fill="#373435" fill-rule="nonzero" fill-opacity="1" transform="matrix(1.00157 0 0 1 207.803 53.9204)"/><path d="M283.82 50.96C270.377 53.453 261.269 57.7872 255.329 64.3782 248.258 72.2238 245.691 83.2631 245.691 98.213L245.691 138.631 245.691 257.676C245.691 279.225 241.463 295.503 232.998 306.346 224.533 317.28 210.064 322.787 189.574 322.787 169.264 322.787 154.876 317.28 146.411 306.346 137.946 295.503 133.718 279.225 133.718 257.676L133.718 138.631 133.718 53.6241 130.158 50.5608 100.453 50.5608C84.8762 50.5608 72.9408 54.3329 64.647 61.7222 56.3533 69.2746 52.2065 81.3811 52.2065 98.213L52.2065 138.631 52.2065 256.967C52.2065 283.543 57.5347 306.273 68.3703 324.987 79.0348 343.782 94.612 358.17 115.094 368.077 135.494 377.984 160.294 382.937 189.574 382.937 218.863 382.937 243.744 377.984 264.234 368.077 284.716 358.17 300.285 343.782 310.949 324.987 321.614 306.273 326.95 283.543 326.95 256.967L326.95 153.475 389.691 229.055 297.857 371.466 299.886 375.711C305.646 377.446 312.416 378.937 320.115 380.191 327.732 381.454 335.521 382.082 343.31 382.082 350.251 382.082 356.598 381.845 362.349 381.373 368.109 380.9 373.103 380.191 377.332 379.255L435.706 284.488 477.044 334.291C505.282 368.305 543.255 381.568 581.229 383.564 622.306 385.731 663.587 374.154 698.441 345.615 733.286 317.084 757.377 267.037 761.556 224.647 776.587 72.3053 603.275 18.5753 502.854 122.059 476.628 149.083 460.179 176.319 459.52 176.531 481.403 156.758 535.735 128.553 586.28 123.322 621.394 119.697 647.921 125.359 665.983 139.022 688.126 155.772 697.544 184.539 694.473 222.912 690.929 267.151 663.97 314.754 610.363 321.573 564.136 327.447 535.336 288.855 509.184 257.407L360.296 78.3912C350.748 67.1971 339.888 56.8829 325.256 51.7421 314.053 47.8152 295.551 48.7847 283.82 50.96Z" fill="#00AFEF" fill-rule="nonzero" fill-opacity="1" transform="matrix(1.00157 0 0 1 207.803 53.9204)"/><path d="M245.724 486.861C245.724 484.865 245.325 482.796 244.526 480.661 243.728 478.527 242.376 476.726 240.477 475.26 238.579 473.801 235.947 473.068 232.607 473.068 227.711 473.068 223.931 475.154 221.258 479.325 218.586 483.504 217.25 489.647 217.25 497.746 217.25 505.249 218.619 511.099 221.34 515.303 224.069 519.506 227.809 521.617 232.558 521.617 235.011 521.617 237.528 521.087 240.094 520.028 242.669 518.977 245.3 517.274 247.997 514.911 248.787 515.392 249.52 516.019 250.18 516.81 250.84 517.6 251.288 518.374 251.541 519.132 250.026 520.647 248.25 522.024 246.213 523.262 244.176 524.501 241.911 525.47 239.434 526.187 236.966 526.904 234.351 527.271 231.589 527.271 227.768 527.271 224.517 526.456 221.837 524.835 219.148 523.221 216.957 521.014 215.27 518.219 213.584 515.417 212.362 512.256 211.588 508.728 210.814 505.2 210.415 501.542 210.415 497.746 210.415 490.796 211.441 485.101 213.494 480.661 215.547 476.221 218.26 472.93 221.641 470.803 225.014 468.685 228.68 467.626 232.648 467.626 236.721 467.626 240.225 468.4 243.149 469.964 246.074 471.52 248.323 473.516 249.895 475.952 251.476 478.388 252.258 480.897 252.258 483.488 252.258 484.417 252.038 485.289 251.574 486.103 251.109 486.918 250.123 487.325 248.632 487.325 248.095 487.325 247.63 487.285 247.239 487.211 246.848 487.146 246.343 487.032 245.724 486.861ZM267.232 497.403C267.232 500.133 267.46 502.935 267.908 505.803 268.357 508.671 269.171 511.31 270.344 513.73 271.509 516.15 273.123 518.105 275.192 519.604 277.261 521.111 279.901 521.869 283.135 521.869 286.337 521.869 288.985 521.111 291.054 519.604 293.115 518.105 294.72 516.15 295.869 513.73 297.026 511.31 297.824 508.671 298.281 505.803 298.729 502.935 298.949 500.133 298.949 497.403 298.949 494.682 298.729 491.88 298.281 489.028 297.824 486.177 297.026 483.545 295.869 481.126 294.72 478.706 293.115 476.751 291.054 475.26 288.985 473.769 286.337 473.027 283.135 473.027 279.901 473.027 277.261 473.769 275.192 475.26 273.123 476.751 271.509 478.706 270.344 481.126 269.171 483.545 268.357 486.177 267.908 489.028 267.46 491.88 267.232 494.682 267.232 497.403ZM260.397 497.403C260.397 491.92 261.228 486.918 262.874 482.405 264.519 477.891 267.02 474.306 270.385 471.634 273.742 468.962 277.986 467.626 283.135 467.626 287.013 467.626 290.386 468.4 293.246 469.948 296.097 471.496 298.46 473.63 300.334 476.376 302.199 479.113 303.593 482.282 304.505 485.867 305.418 489.452 305.874 493.305 305.874 497.403 305.874 502.919 305.051 507.938 303.413 512.467 301.768 516.989 299.258 520.59 295.902 523.262 292.545 525.934 288.284 527.271 283.135 527.271 279.225 527.271 275.852 526.497 273 524.949 270.141 523.401 267.778 521.25 265.912 518.496 264.039 515.742 262.654 512.565 261.749 508.964 260.853 505.363 260.397 501.51 260.397 497.403ZM318.991 468.644C319.52 468.555 320.172 468.489 320.913 468.441 321.655 468.4 322.306 468.384 322.869 468.384 323.512 468.384 324.205 468.4 324.938 468.441 325.663 468.489 326.315 468.555 326.877 468.644L325.101 476.4 324.514 476.441C324.571 478.16 324.637 480.042 324.726 482.111 324.808 484.173 324.881 486.283 324.938 488.434 324.995 490.584 325.019 492.654 325.019 494.625L325.019 526.26C324.457 526.342 323.92 526.399 323.414 526.44 322.909 526.48 322.429 526.513 321.981 526.513 321.533 526.513 321.052 526.48 320.547 526.44 320.042 526.399 319.52 526.342 318.991 526.26L318.991 468.644ZM330.502 488.002C329.435 485.973 328.433 484.01 327.504 482.095 326.584 480.181 325.663 478.282 324.767 476.4L321.647 472.522 326.877 468.644 347.375 506.895C348.475 508.948 349.493 510.976 350.455 512.989 351.408 514.993 352.337 516.924 353.241 518.749L356.361 521.91 351.041 526.26 330.502 488.002ZM358.976 468.807 358.976 526.26C358.439 526.342 357.852 526.399 357.2 526.44 356.557 526.48 355.84 526.513 355.05 526.513 354.235 526.513 353.502 526.48 352.842 526.44 352.182 526.399 351.579 526.342 351.041 526.26L352.899 518.749 353.493 518.749C353.404 516.696 353.322 514.561 353.241 512.337 353.151 510.121 353.094 507.913 353.054 505.713 353.013 503.522 352.98 501.453 352.98 499.514L352.98 472.563C352.98 471.154 353.192 470.103 353.599 469.41 354.007 468.726 354.911 468.384 356.312 468.384L358.471 468.384 358.976 468.807ZM370.57 520.94C370.659 519.987 371.01 519.018 371.613 518.048 372.215 517.079 372.867 516.329 373.568 515.799 376.069 517.51 378.815 518.904 381.78 519.971 384.746 521.038 387.646 521.576 390.481 521.576 394.392 521.576 397.512 520.745 399.842 519.099 402.18 517.453 403.345 515.205 403.345 512.337 403.345 509.779 402.49 507.628 400.763 505.901 399.027 504.174 396.893 502.78 394.359 501.713L384.159 497.403C380.583 495.888 377.796 493.99 375.8 491.709 373.804 489.436 372.81 486.609 372.81 483.236 372.81 480.425 373.552 477.818 375.042 475.447 376.533 473.068 378.643 471.17 381.373 469.752 384.102 468.335 387.345 467.626 391.117 467.626 394.351 467.626 397.414 468.033 400.298 468.864 403.174 469.695 405.708 470.648 407.9 471.716 407.875 472.644 407.639 473.606 407.175 474.6 406.71 475.602 406.091 476.417 405.333 477.036 403.109 475.911 400.763 474.983 398.27 474.249 395.785 473.516 393.463 473.15 391.328 473.15 387.809 473.15 384.941 474.038 382.717 475.814 380.501 477.582 379.385 479.871 379.385 482.69 379.385 484.963 380.208 486.78 381.821 488.14 383.434 489.509 385.349 490.658 387.573 491.586L397.488 495.717C399.704 496.646 401.773 497.803 403.688 499.196 405.594 500.581 407.142 502.259 408.307 504.198 409.48 506.137 410.05 508.402 410.05 510.985 410.05 514.113 409.334 516.891 407.892 519.352 406.441 521.812 404.25 523.759 401.325 525.16 398.4 526.57 394.685 527.271 390.188 527.271 386.644 527.271 383.157 526.692 379.711 525.543 376.265 524.387 373.218 522.855 370.57 520.94ZM462.738 506.601C462.738 511.188 461.866 515.009 460.106 518.073 458.346 521.144 455.918 523.433 452.823 524.965 449.727 526.497 446.191 527.271 442.191 527.271 438.231 527.271 434.712 526.497 431.632 524.965 428.552 523.433 426.141 521.144 424.397 518.073 422.654 515.009 421.782 511.188 421.782 506.601L421.782 468.897 422.287 468.384 424.903 468.384C426.304 468.384 427.216 468.742 427.64 469.443 428.064 470.143 428.275 471.186 428.275 472.563L428.275 506.52C428.275 511.555 429.498 515.376 431.942 517.991 434.394 520.606 437.824 521.91 442.24 521.91 446.655 521.91 450.093 520.606 452.554 517.991 455.014 515.376 456.236 511.555 456.236 506.52L456.236 468.644C456.66 468.555 457.157 468.489 457.719 468.441 458.281 468.4 458.843 468.384 459.405 468.384 459.992 468.384 460.587 468.4 461.157 468.441 461.736 468.489 462.257 468.555 462.738 468.644L462.738 506.601ZM485.175 526.26 482.478 526.26C481.435 526.26 480.547 525.894 479.806 525.177 479.056 524.46 478.681 523.376 478.681 521.91L478.681 468.897 479.187 468.384 481.802 468.384C483.203 468.384 484.124 468.742 484.539 469.443 484.963 470.143 485.175 471.186 485.175 472.563L485.175 526.26ZM510.398 520.525C510.398 522.855 510.064 524.387 509.388 525.136 508.712 525.877 507.612 526.26 506.096 526.26L482.478 526.26 479.268 521.445C481.264 521.111 483.472 520.875 485.892 520.728 488.311 520.59 490.503 520.525 492.474 520.525L510.398 520.525ZM506.479 474.209C506.365 473.761 506.292 473.296 506.251 472.816 506.21 472.335 506.178 471.87 506.178 471.422 506.178 470.974 506.21 470.526 506.251 470.078 506.292 469.622 506.365 469.149 506.479 468.644L543.597 468.644C543.736 469.035 543.85 469.467 543.915 469.948 543.988 470.428 544.013 470.877 544.013 471.3 544.013 472.335 543.703 473.084 543.076 473.532 542.44 473.981 541.455 474.209 540.135 474.209L532.884 474.209C532.371 474.209 531.629 474.192 530.627 474.168 529.633 474.135 528.843 474.127 528.281 474.127L521.828 474.127C521.266 474.127 520.492 474.135 519.506 474.168 518.529 474.192 517.763 474.209 517.233 474.209L506.479 474.209ZM521.828 480.368C521.828 479.211 521.828 478.176 521.828 477.256 521.828 476.343 521.828 475.309 521.828 474.127L521.828 471.422 528.281 471.422 528.281 474.127C528.281 475.309 528.281 476.343 528.281 477.256 528.281 478.176 528.281 479.211 528.281 480.368L528.281 526.26C527.833 526.342 527.311 526.399 526.725 526.44 526.13 526.48 525.584 526.513 525.079 526.513 524.541 526.513 523.979 526.48 523.393 526.44 522.798 526.399 522.276 526.342 521.828 526.26L521.828 480.368ZM561.48 468.644C561.985 468.555 562.604 468.489 563.338 468.441 564.063 468.4 564.715 468.384 565.277 468.384 565.749 468.384 566.368 468.4 567.118 468.441 567.859 468.489 568.413 468.555 568.772 468.644L588.137 525.877C587.632 526.187 587.054 526.415 586.41 526.554 585.758 526.692 585.058 526.766 584.3 526.766 583.257 526.766 582.467 526.537 581.921 526.089 581.375 525.641 580.87 524.753 580.414 523.433L569.326 489.729C568.479 487.228 567.68 484.727 566.922 482.225 566.157 479.716 565.513 477.508 564.975 475.602L564.56 475.602C564.275 476.694 563.965 477.875 563.615 479.154 563.264 480.433 562.914 481.663 562.572 482.812 562.238 483.969 561.953 484.906 561.733 485.639L548.404 526.342C548.005 526.423 547.557 526.48 547.052 526.521 546.547 526.57 546.041 526.594 545.536 526.594 544.885 526.594 544.322 526.554 543.85 526.472 543.369 526.383 542.88 526.285 542.367 526.171L542.204 525.877 561.48 468.644ZM559.158 511.327C558.963 511.327 558.384 511.31 557.431 511.294 556.47 511.286 555.516 511.27 554.547 511.253 553.578 511.245 552.983 511.245 552.787 511.245L550.213 511.245 552.282 505.713 554.563 505.713C554.759 505.713 555.264 505.705 556.079 505.689 556.893 505.673 557.708 505.656 558.523 505.648 559.337 505.632 559.851 505.632 560.046 505.632L569.701 505.632C569.872 505.632 570.377 505.632 571.224 505.648 572.063 505.656 572.919 505.673 573.782 505.689 574.638 505.705 575.159 505.713 575.355 505.713L577.636 505.713 579.485 511.245 576.96 511.245C576.732 511.245 576.129 511.245 575.143 511.253 574.157 511.27 573.188 511.286 572.218 511.294 571.248 511.31 570.67 511.327 570.507 511.327L559.158 511.327ZM598.68 468.644C599.217 468.555 599.861 468.489 600.611 468.441 601.352 468.4 601.996 468.384 602.558 468.384 603.21 468.384 603.894 468.4 604.627 468.441 605.36 468.489 606.004 468.555 606.566 468.644L604.798 476.4 604.203 476.441C604.26 478.16 604.334 480.042 604.415 482.111 604.505 484.173 604.57 486.283 604.627 488.434 604.684 490.584 604.709 492.654 604.709 494.625L604.709 526.26C604.146 526.342 603.617 526.399 603.112 526.44 602.607 526.48 602.126 526.513 601.678 526.513 601.222 526.513 600.749 526.48 600.244 526.44 599.739 526.399 599.217 526.342 598.68 526.26L598.68 468.644ZM610.192 488.002C609.124 485.973 608.13 484.01 607.202 482.095 606.273 480.181 605.36 478.282 604.456 476.4L601.336 472.522 606.566 468.644 627.064 506.895C628.164 508.948 629.19 510.976 630.144 512.989 631.105 514.993 632.034 516.924 632.93 518.749L636.05 521.91 630.738 526.26 610.192 488.002ZM638.666 468.807 638.666 526.26C638.136 526.342 637.541 526.399 636.898 526.44 636.246 526.48 635.529 526.513 634.747 526.513 633.932 526.513 633.199 526.48 632.539 526.44 631.879 526.399 631.268 526.342 630.738 526.26L632.596 518.749 633.183 518.749C633.101 516.696 633.011 514.561 632.93 512.337 632.849 510.121 632.792 507.913 632.751 505.713 632.702 503.522 632.677 501.453 632.677 499.514L632.677 472.563C632.677 471.154 632.889 470.103 633.297 469.41 633.704 468.726 634.6 468.384 636.01 468.384L638.16 468.384 638.666 468.807ZM687.133 486.861C687.133 484.865 686.741 482.796 685.935 480.661 685.136 478.527 683.784 476.726 681.886 475.26 679.988 473.801 677.356 473.068 674.016 473.068 669.119 473.068 665.339 475.154 662.667 479.325 659.995 483.504 658.659 489.647 658.659 497.746 658.659 505.249 660.027 511.099 662.748 515.303 665.478 519.506 669.217 521.617 673.975 521.617 676.419 521.617 678.937 521.087 681.511 520.028 684.077 518.977 686.709 517.274 689.406 514.911 690.196 515.392 690.929 516.019 691.589 516.81 692.249 517.6 692.697 518.374 692.95 519.132 691.434 520.647 689.658 522.024 687.621 523.262 685.585 524.501 683.32 525.47 680.843 526.187 678.374 526.904 675.759 527.271 672.997 527.271 669.176 527.271 665.926 526.456 663.245 524.835 660.557 523.221 658.365 521.014 656.679 518.219 654.992 515.417 653.77 512.256 652.996 508.728 652.222 505.2 651.823 501.542 651.823 497.746 651.823 490.796 652.85 485.101 654.903 480.661 656.956 476.221 659.669 472.93 663.05 470.803 666.423 468.685 670.089 467.626 674.056 467.626 678.13 467.626 681.633 468.4 684.558 469.964 687.483 471.52 689.731 473.516 691.304 475.952 692.884 478.388 693.666 480.897 693.666 483.488 693.666 484.417 693.446 485.289 692.982 486.103 692.518 486.918 691.532 487.325 690.041 487.325 689.503 487.325 689.047 487.285 688.648 487.211 688.257 487.146 687.752 487.032 687.133 486.861ZM714.841 503.4 721.293 503.4 721.293 526.26C720.845 526.342 720.34 526.399 719.762 526.44 719.191 526.48 718.597 526.513 718.01 526.513 717.448 526.513 716.886 526.48 716.307 526.44 715.729 526.399 715.24 526.342 714.841 526.26L714.841 503.4ZM730.915 468.644C731.363 468.498 731.844 468.4 732.349 468.359 732.854 468.318 733.335 468.302 733.783 468.302 734.345 468.302 734.891 468.343 735.412 468.432 735.933 468.514 736.422 468.612 736.903 468.726L737.196 469.272 720.536 509.257 715.688 509.257 698.938 469.361C699.842 468.848 700.632 468.498 701.3 468.318 701.977 468.131 702.596 468.049 703.158 468.049 704.062 468.049 704.779 468.302 705.309 468.823 705.846 469.345 706.311 470.119 706.702 471.129L714.841 490.739C715.403 492.067 716.014 493.656 716.641 495.505 717.277 497.363 717.798 498.992 718.214 500.402L718.637 500.402C718.947 499.448 719.346 498.308 719.81 496.996 720.267 495.693 720.723 494.454 721.171 493.289 721.619 492.124 721.945 491.261 722.141 490.698L730.915 468.644Z" fill="#373435" fill-rule="nonzero" fill-opacity="1" transform="matrix(1.00157 0 0 1 207.803 53.9204)"/></g></g></g></g></svg>